<?xml version="1.0" encoding="UTF-8" standalone="no"?>
<!DOCTYPE svg PUBLIC "-//W3C//DTD SVG 1.1//EN" "http://www.w3.org/Graphics/SVG/1.1/DTD/svg11.dtd"
[
<!ATTLIST g
  xmlns:vectornator CDATA #FIXED "http://vectornator.io"
  vectornator:layerName CDATA #IMPLIED >
<!ATTLIST g
  xmlns:vectornator CDATA #FIXED "http://vectornator.io"
  vectornator:mask CDATA #IMPLIED >
<!ATTLIST text
  xmlns:vectornator CDATA #FIXED "http://vectornator.io"
  vectornator:width CDATA #IMPLIED >

<!ATTLIST path
  xmlns:vectornator CDATA #FIXED "http://vectornator.io"
  vectornator:blendMode CDATA #IMPLIED >
<!ATTLIST path
  xmlns:vectornator CDATA #FIXED "http://vectornator.io"
  vectornator:shadowColor CDATA #IMPLIED >
<!ATTLIST path
  xmlns:vectornator CDATA #FIXED "http://vectornator.io"
  vectornator:shadowOpacity CDATA #IMPLIED >
<!ATTLIST path
  xmlns:vectornator CDATA #FIXED "http://vectornator.io"
  vectornator:shadowRadius CDATA #IMPLIED >
<!ATTLIST path
  xmlns:vectornator CDATA #FIXED "http://vectornator.io"
  vectornator:shadowOffset CDATA #IMPLIED >
<!ATTLIST path
  xmlns:vectornator CDATA #FIXED "http://vectornator.io"
  vectornator:shadowAngle CDATA #IMPLIED >

<!ATTLIST image
  xmlns:vectornator CDATA #FIXED "http://vectornator.io"
  vectornator:blendMode CDATA #IMPLIED >
<!ATTLIST image
  xmlns:vectornator CDATA #FIXED "http://vectornator.io"
  vectornator:shadowColor CDATA #IMPLIED >
<!ATTLIST image
  xmlns:vectornator CDATA #FIXED "http://vectornator.io"
  vectornator:shadowOpacity CDATA #IMPLIED >
<!ATTLIST image
  xmlns:vectornator CDATA #FIXED "http://vectornator.io"
  vectornator:shadowRadius CDATA #IMPLIED >
<!ATTLIST image
  xmlns:vectornator CDATA #FIXED "http://vectornator.io"
  vectornator:shadowOffset CDATA #IMPLIED >
<!ATTLIST image
  xmlns:vectornator CDATA #FIXED "http://vectornator.io"
  vectornator:shadowAngle CDATA #IMPLIED >

<!ATTLIST g
  xmlns:vectornator CDATA #FIXED "http://vectornator.io"
  vectornator:blendMode CDATA #IMPLIED >
<!ATTLIST g
  xmlns:vectornator CDATA #FIXED "http://vectornator.io"
  vectornator:shadowColor CDATA #IMPLIED >
<!ATTLIST g
  xmlns:vectornator CDATA #FIXED "http://vectornator.io"
  vectornator:shadowOpacity CDATA #IMPLIED >
<!ATTLIST g
  xmlns:vectornator CDATA #FIXED "http://vectornator.io"
  vectornator:shadowRadius CDATA #IMPLIED >
<!ATTLIST g
  xmlns:vectornator CDATA #FIXED "http://vectornator.io"
  vectornator:shadowOffset CDATA #IMPLIED >
<!ATTLIST g
  xmlns:vectornator CDATA #FIXED "http://vectornator.io"
  vectornator:shadowAngle CDATA #IMPLIED >

<!ENTITY % SVG.filter.extra.content  "| feDropShadow" >
<!ELEMENT feDropShadow EMPTY>
<!ATTLIST feDropShadow
  xmlns:svg CDATA #FIXED "http://www.w3.org/Graphics/SVG/1.1/DTD/svg11.dtd"
  dx CDATA #IMPLIED>
<!ATTLIST feDropShadow
  xmlns:svg CDATA #FIXED "http://www.w3.org/Graphics/SVG/1.1/DTD/svg11.dtd"
  dy CDATA #IMPLIED>
<!ATTLIST feDropShadow
  xmlns:svg CDATA #FIXED "http://www.w3.org/Graphics/SVG/1.1/DTD/svg11.dtd"
  stdDeviation CDATA #IMPLIED>
<!ATTLIST feDropShadow
  xmlns:svg CDATA #FIXED "http://www.w3.org/Graphics/SVG/1.1/DTD/svg11.dtd"
  flood-opacity CDATA #IMPLIED>
<!ATTLIST feDropShadow
  xmlns:svg CDATA #FIXED "http://www.w3.org/Graphics/SVG/1.1/DTD/svg11.dtd"
  in CDATA #IMPLIED>
<!ATTLIST feDropShadow
  xmlns:svg CDATA #FIXED "http://www.w3.org/Graphics/SVG/1.1/DTD/svg11.dtd"
  result CDATA #IMPLIED>
<!ATTLIST feDropShadow
  xmlns:svg CDATA #FIXED "http://www.w3.org/Graphics/SVG/1.1/DTD/svg11.dtd"
  flood-color CDATA #IMPLIED>
]
>
<!-- Created with Vectornator (http://vectornator.io/) -->
<svg height="100%" stroke-miterlimit="10" style="fill-rule:nonzero;clip-rule:evenodd;stroke-linecap:round;stroke-linejoin:round;" version="1.1" viewBox="0 0 2000 2000" width="100%" xml:space="preserve" xmlns="http://www.w3.org/2000/svg" xmlns:vectornator="http://vectornator.io" xmlns:xlink="http://www.w3.org/1999/xlink">
<defs/>
<g id="Untitled" vectornator:layerName="Untitled">
<g opacity="1">
<g opacity="1">
<path d="M898.29 1018.44C898.29 1021.18 897.65 1023.79 896.36 1026.28C895.08 1028.77 893.23 1030.86 890.84 1032.57C888.1 1034.63 884.84 1035.65 881.08 1035.65C878.34 1035.65 875.73 1035.01 873.25 1033.72C870.76 1032.43 868.66 1030.6 866.95 1028.2L818.65 959.6L796.3 981.44L796.3 1017.92C796.3 1022.72 794.63 1026.83 791.29 1030.25C787.95 1033.68 783.8 1035.39 778.83 1035.39C774.03 1035.39 769.92 1033.68 766.5 1030.25C763.07 1026.83 761.36 1022.71 761.36 1017.92L761.36 879.19C761.36 874.22 763.07 870.07 766.5 866.73C769.92 863.39 774.03 861.72 778.83 861.72C783.8 861.72 787.95 863.39 791.29 866.73C794.63 870.07 796.3 874.22 796.3 879.19L796.3 934.17L865.92 866.34C869.17 863.09 873.12 861.46 877.74 861.46C882.53 861.46 886.64 863.18 890.07 866.6C893.32 869.86 894.95 873.88 894.95 878.67C894.95 883.47 893.24 887.58 889.81 891L844.08 935.19L895.2 1008.41C897.26 1011.5 898.29 1014.84 898.29 1018.44Z" fill="#6355fa" fill-rule="evenodd" opacity="1" stroke="none"/>
<path d="M1032.4 1003.79C1032.4 1003.79 1033.94 1005.33 1037.02 1008.42C1040.1 1011.5 1041.64 1015.27 1041.64 1019.72C1041.64 1024 1040.1 1027.73 1037.02 1030.89C1033.94 1034.06 1030.17 1035.64 1025.72 1035.64L956.35 1035.64C951.55 1035.64 947.44 1033.93 944.02 1030.5C940.59 1027.08 938.88 1022.96 938.88 1018.17L938.88 879.45C938.88 874.48 940.59 870.33 944.02 866.99C947.44 863.65 951.55 861.98 956.35 861.98C961.32 861.98 965.47 863.65 968.81 866.99C972.15 870.33 973.82 874.48 973.82 879.45L973.82 1003.8L1025.72 1003.8C1030.17 1003.79 1032.4 1003.79 1032.4 1003.79Z" fill="#6355fa" fill-rule="evenodd" opacity="1" stroke="none"/>
<path d="M1116.15 1027.69C1105.7 1022.38 1097.44 1014.46 1091.36 1003.92C1085.28 993.39 1082.24 980.76 1082.24 966.03L1082.24 877.91C1082.24 872.94 1083.95 868.79 1087.38 865.45C1090.8 862.11 1094.91 860.44 1099.71 860.44C1104.68 860.44 1108.83 862.11 1112.17 865.45C1115.51 868.79 1117.18 872.94 1117.18 877.91L1117.18 966.03C1117.18 977.85 1120.39 987.1 1126.81 993.78C1133.23 1000.46 1141.32 1003.8 1151.09 1003.8C1160.85 1003.8 1168.94 1000.46 1175.37 993.78C1181.79 987.1 1185 977.85 1185 966.03L1185 877.91C1185 872.94 1186.71 868.79 1190.14 865.45C1193.56 862.11 1197.67 860.44 1202.47 860.44C1207.43 860.44 1211.59 862.11 1214.93 865.45C1218.27 868.79 1219.94 872.94 1219.94 877.91L1219.94 966.03C1219.94 980.76 1216.9 993.39 1210.82 1003.92C1204.74 1014.45 1196.47 1022.38 1186.03 1027.69C1175.58 1033 1163.94 1035.65 1151.09 1035.65C1138.24 1035.65 1126.59 1033 1116.15 1027.69Z" fill="#6355fa" fill-rule="evenodd" opacity="1" stroke="none"/>
<path d="M1390.27 960.38C1394.89 967.23 1397.21 975.11 1397.21 984.01C1397.21 993.26 1394.72 1001.87 1389.76 1009.83C1384.79 1017.79 1378.03 1024.09 1369.46 1028.71C1360.9 1033.33 1351.48 1035.65 1341.2 1035.65L1288.79 1035.65C1283.99 1035.65 1279.88 1033.94 1276.46 1030.51C1273.03 1027.09 1271.32 1022.97 1271.32 1018.18L1271.32 879.45C1271.32 874.66 1273.03 870.55 1276.46 867.12C1279.88 863.7 1283.99 861.98 1288.79 861.98L1334.01 861.98C1343.42 861.98 1352.2 864.08 1360.34 868.27C1368.47 872.47 1374.94 878.29 1379.74 885.74C1384.53 893.19 1386.93 901.46 1386.93 910.53C1386.93 917.38 1385.56 923.63 1382.82 929.28C1380.08 934.93 1376.23 939.9 1371.26 944.18C1379.31 948.13 1385.65 953.53 1390.27 960.38ZM1306.26 893.84L1306.26 929.81L1334.01 929.81C1338.98 929.81 1343.21 928.14 1346.73 924.8C1350.24 921.46 1352 917.05 1352 911.57C1352 906.6 1350.46 902.41 1347.37 898.98C1344.29 895.56 1340.26 893.84 1335.3 893.84C1335.3 893.84 1306.26 893.84 1306.26 893.84ZM1355.97 998.01C1360.17 994.15 1362.26 989.15 1362.26 982.98C1362.26 976.82 1360.25 971.72 1356.22 967.7C1352.19 963.68 1347.18 961.66 1341.19 961.66L1306.25 961.66L1306.25 1003.79L1341.19 1003.79C1346.85 1003.79 1351.78 1001.87 1355.97 998.01Z" fill="#6355fa" fill-rule="evenodd" opacity="1" stroke="none"/>
<path d="M1559.32 960.38C1563.94 967.23 1566.26 975.11 1566.26 984.01C1566.26 993.26 1563.77 1001.87 1558.81 1009.83C1553.84 1017.79 1547.08 1024.09 1538.51 1028.71C1529.95 1033.33 1520.53 1035.65 1510.25 1035.65L1457.84 1035.65C1453.04 1035.65 1448.93 1033.94 1445.51 1030.51C1442.08 1027.09 1440.37 1022.97 1440.37 1018.18L1440.37 879.45C1440.37 874.66 1442.08 870.55 1445.51 867.12C1448.93 863.7 1453.04 861.98 1457.84 861.98L1503.06 861.98C1512.47 861.98 1521.25 864.08 1529.39 868.27C1537.52 872.47 1543.99 878.29 1548.79 885.74C1553.58 893.19 1555.98 901.46 1555.98 910.53C1555.98 917.38 1554.61 923.63 1551.87 929.28C1549.13 934.93 1545.28 939.9 1540.31 944.18C1548.36 948.13 1554.7 953.53 1559.32 960.38ZM1475.31 893.84L1475.31 929.81L1503.06 929.81C1508.03 929.81 1512.26 928.14 1515.78 924.8C1519.29 921.46 1521.05 917.05 1521.05 911.57C1521.05 906.6 1519.51 902.41 1516.42 898.98C1513.34 895.56 1509.31 893.84 1504.35 893.84C1504.35 893.84 1475.31 893.84 1475.31 893.84ZM1525.02 998.01C1529.22 994.15 1531.31 989.15 1531.31 982.98C1531.31 976.82 1529.3 971.72 1525.27 967.7C1521.24 963.68 1516.23 961.66 1510.24 961.66L1475.3 961.66L1475.3 1003.79L1510.24 1003.79C1515.9 1003.79 1520.83 1001.87 1525.02 998.01Z" fill="#6355fa" fill-rule="evenodd" opacity="1" stroke="none"/>
<path d="M1720.01 870.07C1721.47 872.73 1722.2 875.59 1722.2 878.68C1722.2 881.94 1721.34 884.93 1719.63 887.67L1673.9 964.23L1673.9 1018.18C1673.9 1022.98 1672.23 1027.09 1668.89 1030.51C1665.55 1033.94 1661.4 1035.65 1656.43 1035.65C1651.64 1035.65 1647.52 1033.94 1644.1 1030.51C1640.67 1027.09 1638.96 1022.97 1638.96 1018.18L1638.96 964.23L1593.48 887.67C1591.77 884.93 1590.92 881.94 1590.92 878.68C1590.92 875.6 1591.64 872.73 1593.1 870.07C1594.55 867.42 1596.65 865.23 1599.39 863.52C1602.47 861.81 1605.47 860.95 1608.38 860.95C1611.46 860.95 1614.33 861.68 1616.99 863.13C1619.64 864.59 1621.74 866.69 1623.28 869.42L1656.42 928.25L1689.82 869.42C1691.36 866.68 1693.46 864.58 1696.11 863.13C1698.76 861.68 1701.63 860.95 1704.72 860.95C1707.63 860.95 1710.63 861.81 1713.71 863.52C1716.46 865.23 1718.56 867.42 1720.01 870.07Z" fill="#6355fa" fill-rule="evenodd" opacity="1" stroke="none"/>
</g>
<g opacity="1">
<path d="M488.24 1051.61L476.29 1081.63L437.95 1177.93C435.7 1183.58 443 1188.1 447.06 1183.57L507.62 1115.9C520.15 1101.89 536.15 1091.77 553.73 1086.3L488.24 1051.61Z" fill="#6355fa" fill-rule="evenodd" opacity="1" stroke="none"/>
<path d="M584.28 814.58L411.33 814.58C337.58 814.58 277.8 874.36 277.8 948.11L277.8 948.11C277.8 1020.25 335.01 1078.98 406.53 1081.52L478.71 900.22C485.59 882.92 505.7 874.83 522.8 882.95C538.41 890.36 544.94 909.2 538.55 925.25L533.35 938.32L637.55 883.12C652.5 875.21 671.04 880.9 678.95 895.85C686.87 910.8 681.17 929.33 666.22 937.25L534.69 1006.92L646.61 1066.2C688.94 1043.81 717.8 999.34 717.8 948.12L717.8 948.12C717.81 874.36 658.02 814.58 584.28 814.58Z" fill="#6355fa" fill-rule="evenodd" opacity="1" stroke="none"/>
</g>
</g>
</g>
</svg>
