<?xml version="1.0" encoding="utf-8"?>
<!-- Generator: Adobe Illustrator 25.0.0, SVG Export Plug-In . SVG Version: 6.00 Build 0)  -->
<svg version="1.1" id="Layer_1" xmlns="http://www.w3.org/2000/svg" xmlns:xlink="http://www.w3.org/1999/xlink" x="0px" y="0px"
	 viewBox="0 0 194.7 50" style="enable-background:new 0 0 194.7 50;" xml:space="preserve">
<style type="text/css">
	.st0{fill-rule:evenodd;clip-rule:evenodd;fill:#6355FA;}
</style>
<g id="Untitled">
	<g>
		<g>
			<path class="st0" d="M83.6,27.5c0,0.4-0.1,0.7-0.3,1.1c-0.2,0.3-0.4,0.6-0.7,0.8c-0.4,0.3-0.8,0.4-1.3,0.4
				c-0.4,0-0.7-0.1-1.1-0.3c-0.3-0.2-0.6-0.4-0.8-0.7l-6.5-9.2l-3,2.9v4.9c0,0.6-0.2,1.2-0.7,1.7c-0.5,0.5-1,0.7-1.7,0.7
				c-0.6,0-1.2-0.2-1.7-0.7c-0.5-0.5-0.7-1-0.7-1.7V8.7c0-0.7,0.2-1.2,0.7-1.7c0.5-0.5,1-0.7,1.7-0.7c0.7,0,1.2,0.2,1.7,0.7
				c0.5,0.5,0.7,1,0.7,1.7v7.4L79.3,7c0.4-0.4,1-0.7,1.6-0.7c0.6,0,1.2,0.2,1.7,0.7c0.4,0.4,0.7,1,0.7,1.6c0,0.6-0.2,1.2-0.7,1.7
				l-6.2,6l6.9,9.9C83.5,26.5,83.6,27,83.6,27.5z"/>
			<path class="st0" d="M101.7,25.5c0,0,0.2,0.2,0.6,0.6c0.4,0.4,0.6,0.9,0.6,1.5c0,0.6-0.2,1.1-0.6,1.5c-0.4,0.4-0.9,0.6-1.5,0.6
				h-9.4c-0.6,0-1.2-0.2-1.7-0.7c-0.5-0.5-0.7-1-0.7-1.7V8.7c0-0.7,0.2-1.2,0.7-1.7c0.5-0.5,1-0.7,1.7-0.7c0.7,0,1.2,0.2,1.7,0.7
				c0.5,0.5,0.7,1,0.7,1.7v16.8h7C101.4,25.5,101.7,25.5,101.7,25.5z"/>
			<path class="st0" d="M113,28.7c-1.4-0.7-2.5-1.8-3.3-3.2c-0.8-1.4-1.2-3.1-1.2-5.1V8.5c0-0.7,0.2-1.2,0.7-1.7
				c0.5-0.5,1-0.7,1.7-0.7c0.7,0,1.2,0.2,1.7,0.7c0.5,0.5,0.7,1,0.7,1.7v11.9c0,1.6,0.4,2.8,1.3,3.7c0.9,0.9,2,1.4,3.3,1.4
				c1.3,0,2.4-0.5,3.3-1.4c0.9-0.9,1.3-2.1,1.3-3.7V8.5c0-0.7,0.2-1.2,0.7-1.7c0.5-0.5,1-0.7,1.7-0.7c0.7,0,1.2,0.2,1.7,0.7
				c0.5,0.5,0.7,1,0.7,1.7v11.9c0,2-0.4,3.7-1.2,5.1c-0.8,1.4-1.9,2.5-3.3,3.2c-1.4,0.7-3,1.1-4.7,1.1S114.4,29.4,113,28.7z"/>
			<path class="st0" d="M150,19.7c0.6,0.9,0.9,2,0.9,3.2c0,1.2-0.3,2.4-1,3.5c-0.7,1.1-1.6,1.9-2.7,2.5c-1.2,0.6-2.4,0.9-3.8,0.9
				h-7.1c-0.6,0-1.2-0.2-1.7-0.7c-0.5-0.5-0.7-1-0.7-1.7V8.7c0-0.6,0.2-1.2,0.7-1.7c0.5-0.5,1-0.7,1.7-0.7h6.1
				c1.3,0,2.5,0.3,3.5,0.8c1.1,0.6,2,1.4,2.6,2.4c0.6,1,1,2.1,1,3.3c0,0.9-0.2,1.8-0.6,2.5c-0.4,0.8-0.9,1.4-1.6,2
				C148.5,18,149.3,18.7,150,19.7z M138.6,10.7v4.8h3.7c0.7,0,1.2-0.2,1.7-0.7c0.5-0.5,0.7-1,0.7-1.8c0-0.7-0.2-1.2-0.6-1.7
				c-0.4-0.5-1-0.7-1.6-0.7H138.6z M145.3,24.7c0.6-0.5,0.8-1.2,0.8-2c0-0.8-0.3-1.5-0.8-2.1c-0.5-0.5-1.2-0.8-2-0.8h-4.7v5.7h4.7
				C144.1,25.5,144.8,25.2,145.3,24.7z"/>
			<path class="st0" d="M172.8,19.7c0.6,0.9,0.9,2,0.9,3.2c0,1.2-0.3,2.4-1,3.5c-0.7,1.1-1.6,1.9-2.7,2.5c-1.2,0.6-2.4,0.9-3.8,0.9
				h-7.1c-0.6,0-1.2-0.2-1.7-0.7c-0.5-0.5-0.7-1-0.7-1.7V8.7c0-0.6,0.2-1.2,0.7-1.7c0.5-0.5,1-0.7,1.7-0.7h6.1
				c1.3,0,2.5,0.3,3.5,0.8c1.1,0.6,2,1.4,2.6,2.4c0.6,1,1,2.1,1,3.3c0,0.9-0.2,1.8-0.6,2.5c-0.4,0.8-0.9,1.4-1.6,2
				C171.3,18,172.1,18.7,172.8,19.7z M161.4,10.7v4.8h3.7c0.7,0,1.2-0.2,1.7-0.7c0.5-0.5,0.7-1,0.7-1.8c0-0.7-0.2-1.2-0.6-1.7
				c-0.4-0.5-1-0.7-1.6-0.7H161.4z M168.1,24.7c0.6-0.5,0.8-1.2,0.8-2c0-0.8-0.3-1.5-0.8-2.1c-0.5-0.5-1.2-0.8-2-0.8h-4.7v5.7h4.7
				C166.9,25.5,167.6,25.2,168.1,24.7z"/>
			<path class="st0" d="M194.4,7.5c0.2,0.4,0.3,0.7,0.3,1.2c0,0.4-0.1,0.8-0.3,1.2l-6.2,10.3v7.3c0,0.6-0.2,1.2-0.7,1.7
				c-0.5,0.5-1,0.7-1.7,0.7c-0.6,0-1.2-0.2-1.7-0.7c-0.5-0.5-0.7-1-0.7-1.7v-7.3l-6.1-10.3c-0.2-0.4-0.3-0.8-0.3-1.2
				c0-0.4,0.1-0.8,0.3-1.2c0.2-0.4,0.5-0.7,0.8-0.9c0.4-0.2,0.8-0.3,1.2-0.3c0.4,0,0.8,0.1,1.2,0.3c0.4,0.2,0.6,0.5,0.8,0.8l4.5,7.9
				l4.5-7.9c0.2-0.4,0.5-0.7,0.8-0.8c0.4-0.2,0.7-0.3,1.2-0.3c0.4,0,0.8,0.1,1.2,0.3C193.9,6.8,194.2,7.1,194.4,7.5z"/>
		</g>
		<g>
			<path class="st0" d="M28.4,32l-1.6,4l-5.2,13c-0.3,0.8,0.7,1.4,1.2,0.8l8.2-9.1c1.7-1.9,3.8-3.3,6.2-4L28.4,32z"/>
			<path class="st0" d="M41.3,0H18C8.1,0,0,8.1,0,18l0,0c0,9.7,7.7,17.6,17.4,18l9.7-24.4C28,9.2,30.7,8.1,33,9.2
				c2.1,1,3,3.5,2.1,5.7l-0.7,1.8l14-7.4c2-1.1,4.5-0.3,5.6,1.7c1.1,2,0.3,4.5-1.7,5.6l-17.7,9.4l15.1,8c5.7-3,9.6-9,9.6-15.9l0,0
				C59.3,8.1,51.3,0,41.3,0z"/>
		</g>
	</g>
</g>
</svg>
