<svg xmlns="http://www.w3.org/2000/svg" width="45" height="45" viewBox="0 0 45 45">
  <g id="Group_842" data-name="Group 842" transform="translate(-11 -32)">
    <circle id="Ellipse_32" data-name="Ellipse 32" cx="22.5" cy="22.5" r="22.5" transform="translate(11 32)" fill="#6355fa"/>
    <g id="Group_263" data-name="Group 263" transform="translate(18.406 43.52)">
      <path id="Path_487" data-name="Path 487" d="M441.007,1051.61l-.82,2.059-2.63,6.605a.373.373,0,0,0,.625.387l4.154-4.641a7.049,7.049,0,0,1,3.163-2.03Z" transform="translate(-426.573 -1035.352)" fill="#fff"/>
      <path id="Path_488" data-name="Path 488" d="M298.821,814.58H286.959a9.158,9.158,0,0,0-9.159,9.159h0a9.157,9.157,0,0,0,8.83,9.151l4.951-12.435a2.224,2.224,0,0,1,3.024-1.185,2.275,2.275,0,0,1,1.08,2.9l-.357.9,7.147-3.786a2.1,2.1,0,1,1,1.966,3.713l-9.022,4.779,7.677,4.066a9.156,9.156,0,0,0,4.883-8.1h0A9.158,9.158,0,0,0,298.821,814.58Z" transform="translate(-277.8 -814.58)" fill="#fff"/>
    </g>
  </g>
</svg>
