<svg width="36" height="51" viewBox="0 0 36 51" fill="none" xmlns="http://www.w3.org/2000/svg">
<path d="M30 15.3333C30.0046 17.0932 29.5934 18.8292 28.8 20.4C27.8592 22.2823 26.413 23.8656 24.6233 24.9724C22.8335 26.0792 20.771 26.6659 18.6667 26.6667C16.9068 26.6713 15.1708 26.2601 13.6 25.4667L6 28L8.53333 20.4C7.73991 18.8292 7.32875 17.0932 7.33333 15.3333C7.33415 13.229 7.92082 11.1665 9.02763 9.37674C10.1344 7.58701 11.7177 6.14076 13.6 5.20001C15.1708 4.40658 16.9068 3.99542 18.6667 4.00001H19.3333C22.1125 4.15333 24.7374 5.32636 26.7055 7.29449C28.6737 9.26262 29.8467 11.8875 30 14.6667V15.3333Z" stroke="#4F4F4F" stroke-width="2.5" stroke-linecap="round" stroke-linejoin="round"/>
<path d="M5.076 48.216C4.276 48.216 3.592 48.076 3.024 47.796C2.464 47.516 2.012 47.152 1.668 46.704C1.324 46.256 1.072 45.772 0.912 45.252C0.752 44.724 0.672 44.216 0.672 43.728V43.464C0.672 42.936 0.752 42.408 0.912 41.88C1.08 41.352 1.336 40.872 1.68 40.44C2.024 40.008 2.472 39.66 3.024 39.396C3.576 39.132 4.236 39 5.004 39C5.788 39 6.46 39.136 7.02 39.408C7.58 39.68 8.024 40.06 8.352 40.548C8.68 41.036 8.88 41.612 8.952 42.276H7.752C7.688 41.78 7.528 41.372 7.272 41.052C7.016 40.724 6.692 40.48 6.3 40.32C5.916 40.16 5.484 40.08 5.004 40.08C4.484 40.08 4.028 40.172 3.636 40.356C3.244 40.532 2.916 40.784 2.652 41.112C2.396 41.432 2.2 41.804 2.064 42.228C1.936 42.652 1.872 43.112 1.872 43.608C1.872 44.08 1.936 44.528 2.064 44.952C2.2 45.376 2.4 45.752 2.664 46.08C2.936 46.408 3.272 46.668 3.672 46.86C4.072 47.044 4.54 47.136 5.076 47.136C5.828 47.136 6.46 46.948 6.972 46.572C7.484 46.196 7.796 45.652 7.908 44.94H9.108C9.028 45.54 8.824 46.088 8.496 46.584C8.176 47.08 7.728 47.476 7.152 47.772C6.584 48.068 5.892 48.216 5.076 48.216ZM10.6431 48V39.24H11.7951V44.472H11.5071C11.5071 43.84 11.5871 43.296 11.7471 42.84C11.9151 42.376 12.1711 42.02 12.5151 41.772C12.8591 41.524 13.2991 41.4 13.8351 41.4H13.8831C14.6511 41.4 15.2311 41.656 15.6231 42.168C16.0151 42.672 16.2111 43.396 16.2111 44.34V48H15.0591V44.1C15.0591 43.58 14.9111 43.176 14.6151 42.888C14.3271 42.6 13.9511 42.456 13.4871 42.456C12.9751 42.456 12.5631 42.628 12.2511 42.972C11.9471 43.308 11.7951 43.752 11.7951 44.304V48H10.6431ZM22.1948 48V46.08H22.0028V43.86C22.0028 43.42 21.8868 43.088 21.6548 42.864C21.4308 42.64 21.0988 42.528 20.6588 42.528C20.4108 42.528 20.1548 42.532 19.8908 42.54C19.6268 42.548 19.3748 42.556 19.1348 42.564C18.8948 42.572 18.6868 42.584 18.5108 42.6V41.592C18.6868 41.576 18.8708 41.564 19.0628 41.556C19.2628 41.54 19.4668 41.532 19.6748 41.532C19.8828 41.524 20.0828 41.52 20.2748 41.52C20.9308 41.52 21.4668 41.6 21.8828 41.76C22.2988 41.912 22.6068 42.164 22.8068 42.516C23.0068 42.868 23.1068 43.344 23.1068 43.944V48H22.1948ZM20.0948 48.168C19.6148 48.168 19.1988 48.088 18.8468 47.928C18.5028 47.76 18.2348 47.52 18.0428 47.208C17.8588 46.896 17.7668 46.52 17.7668 46.08C17.7668 45.624 17.8668 45.244 18.0668 44.94C18.2748 44.636 18.5748 44.408 18.9668 44.256C19.3588 44.096 19.8308 44.016 20.3828 44.016H22.1228V44.88H20.3348C19.8708 44.88 19.5148 44.992 19.2668 45.216C19.0188 45.44 18.8948 45.728 18.8948 46.08C18.8948 46.432 19.0188 46.716 19.2668 46.932C19.5148 47.148 19.8708 47.256 20.3348 47.256C20.6068 47.256 20.8668 47.208 21.1148 47.112C21.3628 47.008 21.5668 46.84 21.7268 46.608C21.8948 46.368 21.9868 46.04 22.0028 45.624L22.3148 46.08C22.2748 46.536 22.1628 46.92 21.9788 47.232C21.8028 47.536 21.5548 47.768 21.2348 47.928C20.9228 48.088 20.5428 48.168 20.0948 48.168ZM27.7172 48.072C27.2372 48.072 26.8212 48.004 26.4692 47.868C26.1252 47.732 25.8572 47.5 25.6652 47.172C25.4812 46.836 25.3892 46.384 25.3892 45.816V39.648H26.4932V45.96C26.4932 46.304 26.5852 46.572 26.7692 46.764C26.9612 46.948 27.2292 47.04 27.5732 47.04H28.7012V48.072H27.7172ZM24.2852 42.456V41.592H28.7012V42.456H24.2852ZM32.3837 48.192C31.5437 48.192 30.8917 48.012 30.4277 47.652C29.9717 47.292 29.7357 46.8 29.7197 46.176H30.7997C30.8157 46.424 30.9397 46.66 31.1717 46.884C31.4117 47.1 31.8157 47.208 32.3837 47.208C32.8957 47.208 33.2877 47.108 33.5597 46.908C33.8317 46.7 33.9677 46.448 33.9677 46.152C33.9677 45.888 33.8677 45.684 33.6677 45.54C33.4677 45.388 33.1437 45.288 32.6957 45.24L31.9997 45.168C31.3917 45.104 30.8957 44.924 30.5117 44.628C30.1277 44.324 29.9357 43.9 29.9357 43.356C29.9357 42.948 30.0397 42.6 30.2477 42.312C30.4557 42.016 30.7437 41.792 31.1117 41.64C31.4797 41.48 31.9037 41.4 32.3837 41.4C33.1037 41.4 33.6877 41.56 34.1357 41.88C34.5837 42.2 34.8157 42.676 34.8317 43.308H33.7517C33.7437 43.052 33.6237 42.836 33.3917 42.66C33.1677 42.476 32.8317 42.384 32.3837 42.384C31.9357 42.384 31.5957 42.476 31.3637 42.66C31.1317 42.844 31.0157 43.076 31.0157 43.356C31.0157 43.596 31.0957 43.788 31.2557 43.932C31.4237 44.076 31.6957 44.168 32.0717 44.208L32.7677 44.28C33.4557 44.352 34.0077 44.544 34.4237 44.856C34.8397 45.16 35.0477 45.592 35.0477 46.152C35.0477 46.552 34.9317 46.908 34.6997 47.22C34.4757 47.524 34.1637 47.764 33.7637 47.94C33.3637 48.108 32.9037 48.192 32.3837 48.192Z" fill="#4F4F4F"/>
</svg>
