<svg width="34" height="51" viewBox="0 0 34 51" fill="none" xmlns="http://www.w3.org/2000/svg">
<path d="M23.6666 28V25.3333C23.6666 23.9188 23.1047 22.5623 22.1045 21.5621C21.1043 20.5619 19.7477 20 18.3333 20H7.66659C6.2521 20 4.89554 20.5619 3.89535 21.5621C2.89516 22.5623 2.33325 23.9188 2.33325 25.3333V28" stroke="#6355FA" stroke-width="2.5" stroke-linecap="round" stroke-linejoin="round"/>
<path d="M13.0001 14.6667C15.9456 14.6667 18.3334 12.2789 18.3334 9.33333C18.3334 6.38781 15.9456 4 13.0001 4C10.0546 4 7.66675 6.38781 7.66675 9.33333C7.66675 12.2789 10.0546 14.6667 13.0001 14.6667Z" stroke="#6355FA" stroke-width="2.5" stroke-linecap="round" stroke-linejoin="round"/>
<path d="M31.6667 28V25.3333C31.6659 24.1516 31.2726 23.0037 30.5486 22.0698C29.8246 21.1358 28.8109 20.4688 27.6667 20.1733" stroke="#6355FA" stroke-width="2.5" stroke-linecap="round" stroke-linejoin="round"/>
<path d="M22.3333 4.17334C23.4805 4.46707 24.4973 5.13427 25.2234 6.06975C25.9496 7.00523 26.3437 8.15578 26.3437 9.34001C26.3437 10.5242 25.9496 11.6748 25.2234 12.6103C24.4973 13.5457 23.4805 14.2129 22.3333 14.5067" stroke="#6355FA" stroke-width="2.5" stroke-linecap="round" stroke-linejoin="round"/>
<path d="M6.792 48L3.228 43.908H1.944L6.012 39.24H7.356L3.66 43.464L3.552 42.636L8.256 48H6.792ZM1.272 48V39.24H2.448V48H1.272ZM9.30881 48V39.24H10.4608V48H9.30881ZM8.42081 40.152V39.24H10.4608V40.152H8.42081ZM14.8904 48.192C14.1304 48.192 13.5464 47.944 13.1384 47.448C12.7304 46.952 12.5264 46.236 12.5264 45.3V41.58H13.6784V45.528C13.6784 46.032 13.8144 46.428 14.0864 46.716C14.3584 46.996 14.7264 47.136 15.1904 47.136C15.6704 47.136 16.0624 46.984 16.3664 46.68C16.6704 46.368 16.8224 45.944 16.8224 45.408V41.58H17.9744V48H17.0624V45.252H17.2064C17.2064 45.884 17.1224 46.42 16.9544 46.86C16.7864 47.292 16.5344 47.624 16.1984 47.856C15.8704 48.08 15.4504 48.192 14.9384 48.192H14.8904ZM23.5896 48.216C23.0616 48.216 22.5896 48.1 22.1736 47.868C21.7656 47.636 21.4416 47.3 21.2016 46.86C20.9616 46.412 20.8296 45.876 20.8056 45.252H21.1176V48H20.2056V39.24H21.3576V43.5L20.9496 44.376C20.9816 43.68 21.1216 43.112 21.3696 42.672C21.6176 42.232 21.9416 41.908 22.3416 41.7C22.7496 41.484 23.1976 41.376 23.6856 41.376C24.1416 41.376 24.5576 41.464 24.9336 41.64C25.3096 41.808 25.6336 42.044 25.9056 42.348C26.1776 42.644 26.3856 42.992 26.5296 43.392C26.6736 43.784 26.7456 44.208 26.7456 44.664V44.88C26.7456 45.336 26.6696 45.764 26.5176 46.164C26.3736 46.564 26.1616 46.92 25.8816 47.232C25.6016 47.536 25.2656 47.776 24.8736 47.952C24.4896 48.128 24.0616 48.216 23.5896 48.216ZM23.4576 47.208C23.8896 47.208 24.2656 47.104 24.5856 46.896C24.9056 46.688 25.1536 46.404 25.3296 46.044C25.5056 45.676 25.5936 45.252 25.5936 44.772C25.5936 44.292 25.5016 43.872 25.3176 43.512C25.1416 43.152 24.8936 42.876 24.5736 42.684C24.2536 42.484 23.8816 42.384 23.4576 42.384C23.0736 42.384 22.7176 42.472 22.3896 42.648C22.0616 42.816 21.7976 43.064 21.5976 43.392C21.4056 43.712 21.3096 44.1 21.3096 44.556V45.108C21.3096 45.548 21.4096 45.924 21.6096 46.236C21.8096 46.548 22.0736 46.788 22.4016 46.956C22.7296 47.124 23.0816 47.208 23.4576 47.208ZM30.579 48.192C29.739 48.192 29.087 48.012 28.623 47.652C28.167 47.292 27.931 46.8 27.915 46.176H28.995C29.011 46.424 29.135 46.66 29.367 46.884C29.607 47.1 30.011 47.208 30.579 47.208C31.091 47.208 31.483 47.108 31.755 46.908C32.027 46.7 32.163 46.448 32.163 46.152C32.163 45.888 32.063 45.684 31.863 45.54C31.663 45.388 31.339 45.288 30.891 45.24L30.195 45.168C29.587 45.104 29.091 44.924 28.707 44.628C28.323 44.324 28.131 43.9 28.131 43.356C28.131 42.948 28.235 42.6 28.443 42.312C28.651 42.016 28.939 41.792 29.307 41.64C29.675 41.48 30.099 41.4 30.579 41.4C31.299 41.4 31.883 41.56 32.331 41.88C32.779 42.2 33.011 42.676 33.027 43.308H31.947C31.939 43.052 31.819 42.836 31.587 42.66C31.363 42.476 31.027 42.384 30.579 42.384C30.131 42.384 29.791 42.476 29.559 42.66C29.327 42.844 29.211 43.076 29.211 43.356C29.211 43.596 29.291 43.788 29.451 43.932C29.619 44.076 29.891 44.168 30.267 44.208L30.963 44.28C31.651 44.352 32.203 44.544 32.619 44.856C33.035 45.16 33.243 45.592 33.243 46.152C33.243 46.552 33.127 46.908 32.895 47.22C32.671 47.524 32.359 47.764 31.959 47.94C31.559 48.108 31.099 48.192 30.579 48.192Z" fill="#6355FA"/>
</svg>
